<svg width="24" height="24" viewBox="0 0 24 24" fill="none" xmlns="http://www.w3.org/2000/svg">
  <!-- Toolbox/wrench-gear icon for activity bar -->
  <!-- Gear -->
  <path d="M12 8a4 4 0 1 0 0 8 4 4 0 0 0 0-8zm0 6a2 2 0 1 1 0-4 2 2 0 0 1 0 4z" fill="currentColor"/>
  <!-- Gear teeth -->
  <path d="M13.5 3h-3l-.4 2.1a7 7 0 0 0-1.7 1l-2-.8-1.5 2.6 1.6 1.3a7 7 0 0 0 0 1.9l-1.6 1.3 1.5 2.6 2-.8a7 7 0 0 0 1.7 1L10.5 21h3l.4-2.1a7 7 0 0 0 1.7-1l2 .8 1.5-2.6-1.6-1.3a7 7 0 0 0 0-1.9l1.6-1.3-1.5-2.6-2 .8a7 7 0 0 0-1.7-1z" stroke="currentColor" stroke-width="1" fill="none"/>
</svg>
