<svg width="24" height="24" viewBox="0 0 24 24" fill="none" xmlns="http://www.w3.org/2000/svg">
  <circle cx="12" cy="12" r="3" stroke="currentColor" stroke-width="1.5" fill="none"/>
  <path d="M10.5 2.5h3l.4 2.2a7.5 7.5 0 0 1 2 1.1l2.1-.7 1.5 2.6-1.7 1.5a7.5 7.5 0 0 1 0 2.6l1.7 1.5-1.5 2.6-2.1-.7a7.5 7.5 0 0 1-2 1.1l-.4 2.2h-3l-.4-2.2a7.5 7.5 0 0 1-2-1.1l-2.1.7-1.5-2.6 1.7-1.5a7.5 7.5 0 0 1 0-2.6L4.5 8.2 6 5.6l2.1.7a7.5 7.5 0 0 1 2-1.1z" stroke="currentColor" stroke-width="1.5" stroke-linejoin="round" fill="none"/>
</svg>
